<svg version="1.2" xmlns="http://www.w3.org/2000/svg" xmlns:xlink="http://www.w3.org/1999/xlink" overflow="visible" preserveAspectRatio="none" viewBox="0 0 376 56.84615940667072" width="376" height="56.84615940667072"><g transform="translate(0, 0)"><defs><path id="path-15613786563121" d="M0 808.6666666666666 C0 808.6666666666666 73 747 199.00000000000003 799 C325 851 376 780 376 780 C376 780 376 835 376 835 C376 835 0 835 0 835 C0 835 0 808.6666666666666 0 808.6666666666666 Z" vector-effect="non-scaling-stroke"/><filter height="6784.615940667072" id="filter-15613786564315" width="38400" x="-800" y="-1100" filterUnits="userSpaceOnUse" vector-effect="non-scaling-stroke"><feFlood flood-opacity="0" result="backgroundFix" vector-effect="non-scaling-stroke"/><feColorMatrix in="SourceAlpha" result="hardAlpha" type="matrix" values="0 0 0 0 0 0 0 0 0 0 0 0 0 0 0 0 0 0 127 0" vector-effect="non-scaling-stroke"/><feOffset dx="0" dy="-3" vector-effect="non-scaling-stroke"/><feGaussianBlur stdDeviation="3.1666666666666665" vector-effect="non-scaling-stroke"/><feColorMatrix in="" result="" type="matrix" values="0 0 0 0 0.34509803921568627  0 0 0 0 0.47843137254901963  0 0 0 0 0.3764705882352941  0 0 0 0.2 0" vector-effect="non-scaling-stroke"/><feBlend in2="backgroundFix" mode="normal" result="shadowOuter_1" vector-effect="non-scaling-stroke"/></filter></defs><g transform="translate(0, -778.1538405933293)"><use xmlns:xlink="http://www.w3.org/1999/xlink" xlink:href="#path-15613786563121" filter="url(#filter-15613786564315)" style="stroke: rgb(102, 102, 102); fill: rgb(220, 242, 222); stroke-width: 0; stroke-linecap: butt; stroke-linejoin: miter;" vector-effect="non-scaling-stroke"/><path d="M0 808.6666666666666 C0 808.6666666666666 73 747 199.00000000000003 799 C325 851 376 780 376 780 C376 780 376 835 376 835 C376 835 0 835 0 835 C0 835 0 808.6666666666666 0 808.6666666666666 Z" style="stroke: rgb(102, 102, 102); stroke-width: 0; stroke-linecap: butt; stroke-linejoin: miter; fill: rgb(220, 242, 222);" vector-effect="non-scaling-stroke"/><path d="M0 808.6666666666666 C0 808.6666666666666 73 747 199.00000000000003 799 C325 851 376 780 376 780 C376 780 376 835 376 835 C376 835 0 835 0 835 C0 835 0 808.6666666666666 0 808.6666666666666 Z" fill="none" stroke="transparent" stroke-width="8" vector-effect="non-scaling-stroke"/></g></g></svg>