<svg version="1.2" xmlns="http://www.w3.org/2000/svg" xmlns:xlink="http://www.w3.org/1999/xlink" overflow="visible" preserveAspectRatio="none" viewBox="0 0 380.9999999999999 93" width="380.9999999999999" height="93"><g transform="translate(0, 0)"><defs><path id="path-15609108865382" d="M0 200.00000000000006 C0 200.00000000000006 67.53174603174602 263.00000000000006 185.4603174603174 200.00000000000006 C303.3888888888888 137.00000000000003 375.96031746031747 233.00000000000006 375.96031746031747 233.00000000000006 C375.96031746031747 233.00000000000006 380.9999999999999 233.00000000000006 380.9999999999999 233.00000000000006 C380.9999999999999 233.00000000000006 380.9999999999999 140.00000000000003 380.9999999999999 140.00000000000003 C380.9999999999999 140.00000000000003 0 140.00000000000003 0 140.00000000000003 C0 140.00000000000003 0 200.00000000000006 0 200.00000000000006 Z" vector-effect="non-scaling-stroke"/></defs><g transform="translate(0, -140)"><path d="M0 200.00000000000006 C0 200.00000000000006 67.53174603174602 263.00000000000006 185.4603174603174 200.00000000000006 C303.3888888888888 137.00000000000003 375.96031746031747 233.00000000000006 375.96031746031747 233.00000000000006 C375.96031746031747 233.00000000000006 380.9999999999999 233.00000000000006 380.9999999999999 233.00000000000006 C380.9999999999999 233.00000000000006 380.9999999999999 140.00000000000003 380.9999999999999 140.00000000000003 C380.9999999999999 140.00000000000003 0 140.00000000000003 0 140.00000000000003 C0 140.00000000000003 0 200.00000000000006 0 200.00000000000006 Z" style="stroke: rgb(102, 102, 102); stroke-width: 0; stroke-linecap: butt; stroke-linejoin: miter; fill: rgb(242, 147, 126);" vector-effect="non-scaling-stroke"/><path d="M0 200.00000000000006 C0 200.00000000000006 67.53174603174602 263.00000000000006 185.4603174603174 200.00000000000006 C303.3888888888888 137.00000000000003 375.96031746031747 233.00000000000006 375.96031746031747 233.00000000000006 C375.96031746031747 233.00000000000006 380.9999999999999 233.00000000000006 380.9999999999999 233.00000000000006 C380.9999999999999 233.00000000000006 380.9999999999999 140.00000000000003 380.9999999999999 140.00000000000003 C380.9999999999999 140.00000000000003 0 140.00000000000003 0 140.00000000000003 C0 140.00000000000003 0 200.00000000000006 0 200.00000000000006 Z" fill="none" stroke="transparent" stroke-width="8" vector-effect="non-scaling-stroke"/></g></g></svg>