<svg version="1.2" xmlns="http://www.w3.org/2000/svg" xmlns:xlink="http://www.w3.org/1999/xlink" overflow="visible" preserveAspectRatio="none" viewBox="0 0 66 66" id="BGs_1560457764667" width="23" height="23"><g transform="translate(1, 1)"><defs><style>.cls-1_1560457764667{fill:#5b5b5b;}</style></defs><title>COTRIBUIR - V&#237;deo</title><path class="cls-1_1560457764667" d="M4,13V51a2,2,0,0,0,2,2H58a2,2,0,0,0,2-2V13a2,2,0,0,0-2-2H6A2,2,0,0,0,4,13ZM14,51H6V43h8Zm0-10H6V33h8Zm0-10H6V23h8ZM14,21H6V13h8ZM27,37.38V26.62a1,1,0,0,1,1.45-.9l10.76,5.39a1,1,0,0,1,0,1.78L28.45,38.28A1,1,0,0,1,27,37.38ZM58,51H50V43h8Zm0-10H50V33h8Zm0-10H50V23h8ZM58,21H50V13h8Z" vector-effect="non-scaling-stroke" style="fill: rgb(242, 196, 155);"/></g></svg>