<svg version="1.2" xmlns="http://www.w3.org/2000/svg" xmlns:xlink="http://www.w3.org/1999/xlink" overflow="visible" preserveAspectRatio="none" viewBox="0 0 66 66" id="BGs_1560457749978" width="25" height="25"><g transform="translate(1, 1)"><defs><style>.cls-1_1560457749978{fill:#5b5b5b;}</style></defs><title>COTRIBUIR - Gravar &#193;udio</title><path class="cls-1_1560457749978" d="M48,27a1,1,0,0,0-1,1v5.48C47,42,40.06,49.2,31.51,49,22.41,48.69,17,41.18,17,32V28a1,1,0,0,0-2,0v5.55A17.47,17.47,0,0,0,30,50.82V55H22a1,1,0,0,0-1,1h0a1,1,0,0,0,1,1H42a1,1,0,0,0,1-1h0a1,1,0,0,0-1-1H34V50.84A17,17,0,0,0,49,34V28A1,1,0,0,0,48,27Z" vector-effect="non-scaling-stroke" style="fill: rgb(242, 196, 155);"/><path class="cls-1_1560457749978" d="M28.42,33.06a1.57,1.57,0,0,1-1.6,1.54H21A10,10,0,0,0,24.23,42,10.81,10.81,0,0,0,32,45.11,10.83,10.83,0,0,0,39.77,42,10,10,0,0,0,43,34.6H37.39a1.55,1.55,0,1,1,0-3.09H43V27.63H37.39a1.55,1.55,0,1,1,0-3.09H43V20.42H37.39a1.55,1.55,0,1,1,0-3.1H43a10,10,0,0,0-3.22-7.17A10.8,10.8,0,0,0,32,7a10.84,10.84,0,0,0-7.77,3.11A10,10,0,0,0,21,17.32h5.81a1.55,1.55,0,1,1,0,3.1H21v4.12h5.82a1.55,1.55,0,1,1,0,3.09H21v3.88h5.82A1.58,1.58,0,0,1,28.42,33.06Z" vector-effect="non-scaling-stroke" style="fill: rgb(242, 196, 155);"/></g></svg>