<svg version="1.2" xmlns="http://www.w3.org/2000/svg" xmlns:xlink="http://www.w3.org/1999/xlink" overflow="visible" preserveAspectRatio="none" viewBox="0 0 205.89999389648438 42.099998474121094" xml:space="preserve" y="0px" x="0px" id="Camada_1_1560457358338" width="160.375" height="31.600985221674886"><g transform="translate(1, 1)"><g id="Camada_2_1__1560457358338">
	<g id="Camada_1-2_1560457358338">
		<polygon points="11,10.9 0,10.9 0,14.1 14.2,14.1 14.2,0 11,0" vector-effect="non-scaling-stroke" style="fill: rgb(255, 255, 255);"/>
		<rect height="3.2" width="3.2" y="20.9" x="15.9" vector-effect="non-scaling-stroke" style="fill: rgb(255, 255, 255);"/>
		<rect height="14.2" width="3.2" y="0" x="20.9" vector-effect="non-scaling-stroke" style="fill: rgb(255, 255, 255);"/>
		<rect height="14.2" width="3.2" y="25.9" x="15.9" vector-effect="non-scaling-stroke" style="fill: rgb(255, 255, 255);"/>
		<rect height="3.2" width="3.2" y="15.9" x="15.9" vector-effect="non-scaling-stroke" style="fill: rgb(255, 255, 255);"/>
		<rect height="3.2" width="14.2" y="15.9" vector-effect="non-scaling-stroke" style="fill: rgb(255, 255, 255);"/>
		<polygon points="0,29.1 11,29.1 11,40.1 14.2,40.1 14.2,25.9 0,25.9" vector-effect="non-scaling-stroke" style="fill: rgb(255, 255, 255);"/>
		<rect height="3.2" width="14.2" y="20.9" vector-effect="non-scaling-stroke" style="fill: rgb(255, 255, 255);"/>
		<rect height="14.2" width="3.2" y="0" x="15.9" vector-effect="non-scaling-stroke" style="fill: rgb(255, 255, 255);"/>
		<rect height="3.2" width="14.2" y="20.9" x="25.9" vector-effect="non-scaling-stroke" style="fill: rgb(255, 255, 255);"/>
		<polygon points="29.1,0 25.9,0 25.9,14.1 40.1,14.1 40.1,10.9 29.1,10.9" vector-effect="non-scaling-stroke" style="fill: rgb(255, 255, 255);"/>
		<rect height="3.2" width="14.2" y="15.9" x="25.9" vector-effect="non-scaling-stroke" style="fill: rgb(255, 255, 255);"/>
		<rect height="3.2" width="3.2" y="15.9" x="20.9" vector-effect="non-scaling-stroke" style="fill: rgb(255, 255, 255);"/>
		<rect height="3.2" width="3.2" y="20.9" x="20.9" vector-effect="non-scaling-stroke" style="fill: rgb(255, 255, 255);"/>
		<rect height="14.2" width="3.2" y="25.9" x="20.9" vector-effect="non-scaling-stroke" style="fill: rgb(255, 255, 255);"/>
		<polygon points="25.9,40.1 29.1,40.1 29.1,29.1 40.1,29.1 40.1,25.9 25.9,25.9" vector-effect="non-scaling-stroke" style="fill: rgb(255, 255, 255);"/>
		<path d="M63.9,11.5c0.2-0.3,0.6-0.5,1-0.5h3.7v18h-4.6V17.9l0,0L60,22.7h-2.7c-0.2,0-0.3,0-0.5-0.1c-0.1-0.1-0.3-0.2-0.3-0.3    L53,17.9l0,0V29h-4.6V11h3.9c0.2,0,0.4,0,0.6,0.1c0.2,0.1,0.3,0.2,0.4,0.4l5.3,6.5h0.1L63.9,11.5z" vector-effect="non-scaling-stroke" style="fill: rgb(255, 255, 255);"/>
		<path d="M85.9,11v4h-9.2v3h8.4v3.9h-8.4v3.2h9.4v4H71.9V11H85.9z" vector-effect="non-scaling-stroke" style="fill: rgb(255, 255, 255);"/>
		<path d="M89.2,29V11h6.6c1.7,0,3.3,0.2,4.9,0.6c1.3,0.4,2.6,1.1,3.6,2.1c0.8,0.8,1.4,1.7,1.7,2.7c0.4,1.2,0.6,2.4,0.6,3.7    c0,1.2-0.2,2.5-0.6,3.7c-0.4,1-0.9,1.9-1.7,2.6c-1,1-2.2,1.7-3.6,2.1c-1.6,0.4-3.3,0.6-4.9,0.6L89.2,29z M95.6,24.9    c0.9,0,1.8-0.1,2.7-0.2c0.7-0.1,1.3-0.4,1.8-0.9c0.4-0.4,0.8-0.9,1-1.5c0.3-0.7,0.4-1.5,0.3-2.3c0-0.8-0.1-1.6-0.3-2.3    c-0.2-0.6-0.5-1.1-1-1.5c-0.5-0.5-1.2-0.8-1.8-0.9c-0.9-0.2-1.8-0.2-2.7-0.2H94v9.7L95.6,24.9z" vector-effect="non-scaling-stroke" style="fill: rgb(255, 255, 255);"/>
		<path d="M122.9,17.7l-2.8-1.7c-0.4-0.3-0.9-0.5-1.4-0.6c-0.5-0.1-0.9-0.2-1.4-0.2c-0.5,0-1.1,0.1-1.5,0.3c-0.5,0.2-0.9,0.6-1.3,1    c-0.4,0.4-0.7,1-0.9,1.5c-0.2,0.6-0.3,1.3-0.3,2c-0.1,1.3,0.3,2.6,1.2,3.6c0.9,0.9,2.2,1.3,3.5,1.2h0.1h0.8c0.3,0,0.6,0,0.9-0.1    c0.3,0,0.6-0.1,0.8-0.1s0.5-0.1,0.7-0.2c0.1,0,0.2-0.1,0.2-0.1c0-0.1,0-0.2,0-0.2v-1.6H119v-3.1h6.4c0.2,0,0.5,0,0.7,0.1    c0.1,0.2,0.2,0.4,0.2,0.6v9H123l-0.8-1.5l-1.3,0.8c-0.6,0.4-1.2,0.6-1.9,0.8c-0.7,0.2-1.3,0.3-2,0.3c-1.2,0-2.5-0.2-3.6-0.7    c-1-0.5-2-1.2-2.7-2c-0.8-0.9-1.4-1.9-1.7-2.9c-0.4-1.2-0.6-2.4-0.6-3.7c0-1.3,0.2-2.6,0.7-3.9c0.5-1.1,1.1-2.1,2-2.9    c0.9-0.8,1.9-1.4,3-1.9c1.2-0.4,2.4-0.6,3.7-0.6c0.9,0,1.8,0.1,2.7,0.4c0.8,0.2,1.6,0.6,2.3,1c0.7,0.4,1.3,0.9,1.8,1.6    c0.5,0.6,0.9,1.3,1.2,2L122.9,17.7z" vector-effect="non-scaling-stroke" style="fill: rgb(255, 255, 255);"/>
		<path d="M134.3,29h-4.9V11h7.9c1.3,0,2.6,0.1,3.8,0.4c0.9,0.2,1.8,0.7,2.5,1.3c0.5,0.5,0.9,1.1,1.1,1.8c0.3,0.8,0.4,1.6,0.4,2.4    c0,1.2-0.3,2.3-0.9,3.4c-0.5,0.9-1.3,1.7-2.1,2.2l4.1,6.5h-4.8c-0.2,0-0.3,0-0.5-0.1c-0.1-0.1-0.3-0.2-0.3-0.4l-2.8-4.7    c-0.1-0.2-0.2-0.3-0.4-0.5c-0.2-0.1-0.3-0.1-0.5-0.1h-2.7V29z M138.9,19.5c0.2,0,0.4,0,0.6-0.1c0.2-0.1,0.3-0.2,0.4-0.4    c0.2-0.3,0.3-0.6,0.3-0.9c0.1-0.3,0.1-0.6,0.1-1c0-0.3,0-0.6-0.1-0.9c-0.1-0.2-0.2-0.5-0.4-0.7c-0.2-0.2-0.5-0.4-0.9-0.4    c-0.5-0.1-1-0.1-1.4-0.1h-3.1v4.5H138.9z" vector-effect="non-scaling-stroke" style="fill: rgb(255, 255, 255);"/>
		<path d="M165.1,21.3c0,1.2-0.1,2.3-0.5,3.4c-0.3,0.9-0.9,1.8-1.6,2.5c-0.7,0.7-1.6,1.3-2.6,1.6c-2.4,0.7-5,0.7-7.4,0    c-1-0.3-1.9-0.9-2.6-1.6c-0.7-0.7-1.2-1.6-1.6-2.5c-0.4-1.1-0.5-2.3-0.5-3.4V11h4.8v10.6c-0.1,0.8,0.2,1.6,0.7,2.2    c0.4,0.3,0.8,0.5,1.2,0.6c0.6,0.1,1.1,0.2,1.7,0.2c0.6,0,1.1-0.1,1.7-0.2c0.4-0.1,0.8-0.3,1.2-0.6c0.6-0.6,0.8-1.4,0.7-2.2V11h4.8    L165.1,21.3z" vector-effect="non-scaling-stroke" style="fill: rgb(255, 255, 255);"/>
		<path d="M173,23.7V29h-4.9V11h7.8c1.3,0,2.5,0.1,3.8,0.4c0.9,0.2,1.8,0.7,2.4,1.4c1.1,1.2,1.7,2.8,1.6,4.4c0,0.9-0.1,1.9-0.4,2.7    c-0.3,0.8-0.7,1.4-1.3,2c-0.6,0.6-1.4,1.1-2.2,1.3c-1.1,0.3-2.2,0.5-3.3,0.4L173,23.7z M177.5,19.8c0.2,0,0.4,0,0.6-0.1    c0.2-0.1,0.3-0.2,0.4-0.4c0.2-0.3,0.3-0.6,0.3-1c0.1-0.4,0.1-0.7,0.1-1.1c0-0.3,0-0.7-0.1-1c-0.1-0.3-0.2-0.5-0.4-0.7    c-0.2-0.2-0.6-0.4-0.9-0.4c-0.5-0.1-1-0.1-1.5-0.1H173v4.8L177.5,19.8z" vector-effect="non-scaling-stroke" style="fill: rgb(255, 255, 255);"/>
		<path d="M203.9,20c0,1.3-0.2,2.6-0.8,3.8c-0.5,1.1-1.1,2.1-2,2.9c-0.9,0.8-1.9,1.5-3,1.9c-2.3,0.9-4.9,0.9-7.2,0    c-1.1-0.4-2.1-1-2.9-1.9c-0.9-0.8-1.5-1.8-2-2.9c-0.5-1.2-0.8-2.5-0.8-3.8c0-1.3,0.2-2.6,0.8-3.8c0.9-2.2,2.7-4,5-4.8    c2.3-0.9,4.9-0.9,7.2,0c2.3,0.9,4.1,2.6,5,4.8C203.7,17.4,204,18.7,203.9,20z M198.9,20c0.1-1.2-0.3-2.4-1.1-3.4    c-1.8-1.6-4.5-1.6-6.3,0c-0.8,0.9-1.2,2.1-1.1,3.4c-0.1,1.2,0.3,2.4,1.1,3.4c1.8,1.6,4.5,1.6,6.3,0    C198.6,22.4,198.9,21.2,198.9,20z" vector-effect="non-scaling-stroke" style="fill: rgb(255, 255, 255);"/>
	</g>
</g></g></svg>